inDegrees=no
num_controls=7
num_derivatives=13
num_iterations=110
num_multipliers=7
num_parameters=0
num_slacks=7
num_states=26
objective=4.923943
objective_accelerations=0.547284
objective_balance=0.011362
objective_effort=0.150367
objective_height=4.188337
objective_ligament=0.026594
solver_duration=1224.401624
status=Solve_Succeeded
success=true
DataType=double
version=3
OpenSimVersion=4.4-2022-07-23-0e9fedc
endheader
time	/jointset/ground_pelvis/pelvis_tilt/value	/jointset/ground_pelvis/pelvis_tx/value	/jointset/ground_pelvis/pelvis_ty/value	/jointset/hip_l/hip_flexion_l/value	/jointset/hip_l/hip_adduction_l/value	/jointset/hip_l/hip_rotation_l/value	/jointset/back/lumbar_extension/value	/jointset/patellofemoral_l/patellar_flexion_l/value	/jointset/knee_l/knee_flexion_l/value	/jointset/knee_l/knee_adduction_l/value	/jointset/knee_l/knee_rotation_l/value	/jointset/ankle_l/ankle_angle_l/value	/jointset/subtalar_l/subtalar_angle_l/value	/jointset/ground_pelvis/pelvis_tilt/speed	/jointset/ground_pelvis/pelvis_tx/speed	/jointset/ground_pelvis/pelvis_ty/speed	/jointset/hip_l/hip_flexion_l/speed	/jointset/hip_l/hip_adduction_l/speed	/jointset/hip_l/hip_rotation_l/speed	/jointset/back/lumbar_extension/speed	/jointset/patellofemoral_l/patellar_flexion_l/speed	/jointset/knee_l/knee_flexion_l/speed	/jointset/knee_l/knee_adduction_l/speed	/jointset/knee_l/knee_rotation_l/speed	/jointset/ankle_l/ankle_angle_l/speed	/jointset/subtalar_l/subtalar_angle_l/speed	/forceset/tau_hip_flexion_l	/forceset/tau_hip_adduction_l	/forceset/tau_hip_rotation_l	/forceset/tau_knee_flexion_l	/forceset/tau_ankle_angle_l	/forceset/tau_subtalar_angle_l	/forceset/tau_lumbar_extension	lambda_cid13_p0	lambda_cid13_p1	lambda_cid13_p2	lambda_cid13_p3	lambda_cid13_p4	lambda_cid13_p5	lambda_cid14_p0	/jointset/ground_pelvis/pelvis_tilt/accel	/jointset/ground_pelvis/pelvis_tx/accel	/jointset/ground_pelvis/pelvis_ty/accel	/jointset/hip_l/hip_flexion_l/accel	/jointset/hip_l/hip_adduction_l/accel	/jointset/hip_l/hip_rotation_l/accel	/jointset/back/lumbar_extension/accel	/jointset/patellofemoral_l/patellar_flexion_l/accel	/jointset/knee_l/knee_flexion_l/accel	/jointset/knee_l/knee_adduction_l/accel	/jointset/knee_l/knee_rotation_l/accel	/jointset/ankle_l/ankle_angle_l/accel	/jointset/subtalar_l/subtalar_angle_l/accel	gamma_cid13_p0	gamma_cid13_p1	gamma_cid13_p2	gamma_cid13_p3	gamma_cid13_p4	gamma_cid13_p5	gamma_cid14_p0
0	0.04891448991924238	0.1077117521991124	0.902880737320539	0.1266917050730164	-0.3699660849698982	-0.2194364362789314	-0.2144974744115991	0.2051547269256921	0.2051547269256735	-0.1745312030146048	-0.1548585262996063	0.09024399430361882	0.0790376091837265	0	0	0	0	0	0	0	0	0	0	0	0	0	0.1088717075820114	-0.08203611400833653	-0.008217094362594737	-0.2464657459862855	0.1809109240402159	-0.06415984159762186	-0.0420365350506015	28.71597707178924	23.83950559015815	-5.227170701690509	-22.82221517588356	-440.3440031890377	-69.79524503116878	-26.06615050685751	-2.544529878905854	-0.7625546970318674	-0.7454559659171703	9.43191116842485	-0.3284912996549463	2.915971512443436	-3.360893543413697	9.487629052258622	9.487629052254119	1.604962170175285	-0.8585573580103152	3.39936772496664	0.6288292923380207	-1.04074220283392e-08	4.130393253788082e-07	-4.575783077096651e-08	3.641517275059853e-08	8.15966565104306e-09	1.479614797944626e-07	4.219044358336737e-08
0.01	0.04879346636881526	0.107674276339094	0.9028445552491822	0.1271492431982875	-0.36998180957836	-0.2192847399841505	-0.2146688285319839	0.2056169149703676	0.2056169149708218	-0.1744529815848382	-0.1548910262136966	0.09041019883655156	0.07906860481703651	-0.02413491878498854	-0.007454581341684335	-0.007215104092049457	0.09111858300060395	-0.003131187888120933	0.03021474543833209	-0.03403126642450068	0.09199786216053078	0.09199786216049879	0.01555514974427299	-0.006443870865141695	0.03308351609593935	0.00616907427306028	0.1067861072780326	-0.08863347489289546	-0.007690421361844526	-0.244035955821514	0.1753840256110461	-0.0566542063182706	-0.04030991919055837	27.33990095712376	20.63273296195136	-4.501162627278491	-22.16622209397057	-441.0332875493228	-76.32010265073593	-26.06643522627051	-2.337507040227043	-0.730813971716549	-0.7063394721086894	8.893472207230426	-0.3034276520110104	3.055569335329496	-3.388309543859468	8.989894337718416	8.989894337717992	1.517485804284199	-0.5289026363715319	3.239244414950728	0.6063793933534595	-3.04876705567668e-08	6.139261820398053e-07	-1.441040206717911e-08	6.831703308201945e-08	-1.482360883462235e-07	1.539922596192378e-07	6.221702113863426e-08
0.02	0.04843318679814524	0.1075634738418634	0.9027368617686553	0.1285062952218021	-0.3700284450893128	-0.2188346275796016	-0.215173308586959	0.2069858875450183	0.2069858875450145	-0.1742218697705759	-0.1549862849728583	0.09090251870314776	0.07916037777278949	-0.04785120404693084	-0.01466532744244102	-0.01430228183402363	0.1799027796555369	-0.006182180520833695	0.05968322190872715	-0.06662518692458899	0.1813569059117622	0.1813569059117548	0.030578076597632	-0.01255176915452185	0.06522306671356946	0.0121554644885865	0.1047005069727206	-0.09523083577869741	-0.007163748364186194	-0.2416061656580705	0.1698571271807979	-0.0491485710405447	-0.03858330333033987	26.00580582806968	17.4272522691863	-3.785234537898795	-21.5833126051397	-440.9990447344084	-82.70390767083209	-26.06706074894965	-2.460803174296129	-0.7137876488468031	-0.7198706959021415	8.965033899290709	-0.3124522485738051	2.766717718856138	-3.07342435853098	8.959865370398846	8.959865370405666	1.498517591991601	-0.7913628428582259	3.210574629304153	0.5922924808305062	-5.056791908519439e-08	8.148130387008025e-07	1.693702663660829e-08	1.002188934134403e-07	-3.046318423434901e-07	1.600230394440129e-07	8.224359869390116e-08
0.03	0.04783780370679708	0.1073814980163542	0.9025587363101109	0.1307403172221342	-0.3701049548816655	-0.218094559632718	-0.2159963125518542	0.2092359785600397	0.2092359785597372	-0.1738426939332511	-0.1551419347237208	0.09171143229588076	0.07931135818289482	-0.07112400362448741	-0.02171630841222328	-0.02131558549575425	0.2665259437494572	-0.009087253775537461	0.0882114714563661	-0.09774916654493432	0.2682344761546208	0.2682344761546262	0.04518912289132475	-0.01850272333544317	0.0963773357087732	0.01802477250905054	0.1013928722928865	-0.09103905585147128	-0.006345152769866282	-0.2374664200917632	0.1641377073423143	-0.05048973650209083	-0.03609528033980629	24.07505296162793	18.19905528038391	-3.738399275595407	-20.16986524593309	-441.1167868036322	-80.49722436337655	-26.06770270929772	-2.245306373290481	-0.6987037625820645	-0.691038102737921	8.454600801115458	-0.2747804291498918	2.878068132440041	-3.097918836754156	8.487663182960498	8.487663182957871	1.432344763262055	-0.4856599206074489	3.0405245761233	0.5817433960808309	-6.235133249175917e-08	9.40228541511307e-07	2.886435987980065e-08	1.210400050704024e-07	-4.159420825973105e-07	1.691987624917336e-07	9.667243173575666e-08
0.04	0.04701273501485628	0.1071294222928377	0.9023106822346665	0.133829299490851	-0.3702095645196899	-0.2170727712785816	-0.2171237631275411	0.2123420373437213	0.2123420373437275	-0.1733194183104703	-0.1553548336595545	0.09282642288682245	0.07952053035988971	-0.09378832415434958	-0.02868530704393524	-0.02828800521403685	0.3508948333101693	-0.01180214963963317	0.1160273033929191	-0.1275145090839353	0.3525504596667567	0.352550459666744	0.05939803379320148	-0.02400160611229992	0.1264384663637697	0.02379381786656742	0.09808523761572627	-0.08684727592376842	-0.005526557174405389	-0.2333266745236298	0.1584182875046904	-0.0518309019628798	-0.03360725734800279	22.18295018644473	18.97468279840132	-3.704274046519748	-18.82135325022504	-440.5621580825371	-78.15172527415626	-26.06768599224074	-2.339107364756824	-0.6973911812332034	-0.7116939072125408	8.5141789926491	-0.2744167704523754	2.624234196638977	-2.801696942261881	8.447548024254415	8.447548024255061	1.418090513628018	-0.700948562045453	2.991946961262146	0.5722399482406665	-7.396367713292471e-08	1.064087933933142e-06	4.039127878359928e-08	1.416326476825303e-07	-5.263227246296165e-07	1.784393297296181e-07	1.109858473649645e-07
0.05	0.04596360691777137	0.1068080793037974	0.9019929012506878	0.1377514892719841	-0.3703404068958678	-0.2157775591197366	-0.2185416528919474	0.2162791335641066	0.2162791335640469	-0.1726560855470569	-0.155621741188499	0.09423673656510709	0.0797869356053255	-0.115938278950276	-0.03556665072592963	-0.03527452925935174	0.4331655292878259	-0.01433453528226475	0.1428879974802183	-0.1558396686750831	0.434439714077514	0.4344397140775235	0.07318383313783426	-0.02930255323006068	0.1554410282359664	0.02947170908806747	0.09456797787207197	-0.08501294158950475	-0.004585006833796522	-0.229493579721288	0.1521722172625182	-0.05077016333311594	-0.03099452327439634	20.24886218374206	18.69912831557241	-3.484985037398371	-17.51080492857452	-440.2309521374065	-77.99874012629542	-26.06626384333904	-2.138083524600377	-0.6809814641608496	-0.6931884613642676	8.026870014160311	-0.2380442983564491	2.697946441246636	-2.81435919894869	7.995231287164393	7.995231287167317	1.346309109855464	-0.4330843469070055	2.826949761132276	0.5630639335288739	-7.866417942157789e-08	1.109161578272099e-06	3.505161353350815e-08	1.522651739006672e-07	-5.939752998002656e-07	1.888435470599262e-07	1.18814158996605e-07
0.06	0.04469595047517327	0.1064184277774408	0.9016050436646238	0.1424850570357543	-0.370495652095916	-0.2142175481347526	-0.2202360809985218	0.2210222457561263	0.2210222457561323	-0.1718573978971246	-0.1559393415006995	0.09593158365431123	0.08010961980786072	-0.1374939932497183	-0.0423470145072113	-0.04230332563110963	0.5131704298189737	-0.016682714412399	0.1689870686263735	-0.1828221775224731	0.5137536539953971	0.5137536539954242	0.08646901108141435	-0.03414016275844477	0.1833451485455029	0.03504960928650915	0.09105071812998304	-0.08317860725547345	-0.003643456492686548	-0.2256604849183547	0.1459261470204607	-0.04970942470357523	-0.0283817891995659	18.35007480335542	18.42604690661639	-3.275976728776826	-16.25724838805278	-439.2883275714388	-77.71955830489019	-26.06243888743636	-2.22025926545959	-0.6771952010910657	-0.7201483725011394	8.061019903347386	-0.237575467953079	2.471909608410209	-2.533166793510083	7.932485125679657	7.932485125679421	1.317966233417193	-0.6082810441702645	2.772258648729593	0.5522417436286562	-8.307365676907265e-08	1.150917927954935e-06	2.900177631904272e-08	1.624783267969518e-07	-6.598287984714765e-07	1.992967601835996e-07	1.263694136178216e-07
0.07000000000000001	0.0432152303232925	0.1059614927924108	0.9011465106623728	0.1480082845489415	-0.3706734055036786	-0.2124014719938798	-0.22219324283282	0.2265465017075061	0.226546501707409	-0.1709281260117174	-0.1563042812401948	0.09790028131733416	0.0804877575640731	-0.1585519486522525	-0.04901953345302383	-0.04941994782662672	0.5910982138608313	-0.01883214823040381	0.1941014599436361	-0.208396273733999	0.590672413404683	0.5906724134046687	0.09929858310985734	-0.03876253636966612	0.2102163359460834	0.04056961084171824	0.08742499516882198	-0.08068663681792637	-0.002655763382846784	-0.2222599574532119	0.1401977043532952	-0.04907817313272739	-0.02570864537035018	16.5782181991682	18.34288705271512	-3.12650995613096	-15.09464981225468	-438.6104572596366	-77.03492414225661	-26.05519040304262	-2.03384365838782	-0.6591802659873496	-0.7100528582031911	7.602124018894827	-0.1984258951699588	2.512233350869675	-2.53744369416692	7.507777552512339	7.507777552506369	1.252635276229348	-0.3764497043597772	2.617868827551402	0.5504466517400964	-8.186488180999191e-08	1.116755309177389e-06	1.215897875867834e-08	1.631479910490904e-07	-6.885841844622921e-07	2.042951926555678e-07	1.270485315592494e-07
0.08	0.04152687462119923	0.1054384526129895	0.9006162846951432	0.1542994831754857	-0.3708716129609277	-0.210338046048387	-0.2243997281610564	0.2328271864937349	0.2328271864937412	-0.1698731218883651	-0.1567128915528136	0.1001323548627258	0.08092080879389178	-0.179021103284236	-0.05556805338546025	-0.05664191862681477	0.666764652474292	-0.02077352430626203	0.2184570295603231	-0.2326868763131939	0.6650394209723463	0.6650394209722956	0.1116154586851509	-0.04287427737135245	0.2360203250198172	0.04603230400783489	0.08379927220920566	-0.07819466638040477	-0.001668070272438026	-0.2188594299873566	0.1344692616863663	-0.04844692156184256	-0.02303550154007881	14.83801813479622	18.26299752058185	-2.98763245593656	-13.97819269037231	-437.3795745174082	-76.23178722258133	-26.04328996284721	-2.102499111349107	-0.6523953984161976	-0.7412180934353338	7.608750817668001	-0.1959639195239017	2.320145268295121	-2.276468067043682	7.422134757355214	7.422134757356024	1.215426942787057	-0.5061545222633895	2.558818983359816	0.5407800658098693	-8.029363896016436e-08	1.077694692434657e-06	-5.380138824002069e-09	1.632019463564454e-07	-7.149461438285662e-07	2.089417037951679e-07	1.272840277794004e-07
